<svg width="2048" height="2048" viewBox="0 0 2048 2048" fill="none" xmlns="http://www.w3.org/2000/svg">
<g clip-path="url(#clip0_2_58)">
<path d="M0 0H2048V2048H0V0Z" fill="white"/>
<path d="M1430.56 513C1461.8 512.997 1481.61 521.347 1503.16 543.74C1560.26 602.837 1615.43 664.287 1671.69 724.16C1700.16 754.464 1722.1 779.145 1719.38 823.847C1717.42 856.264 1692.83 883.628 1671.71 905.701C1634.44 944.628 1596.54 982.664 1558.72 1020.91C1598.7 1064.1 1641.1 1107.14 1681.04 1151.02C1771.04 1249.86 1685.57 1308.31 1618.35 1380.14C1571.1 1430.64 1523.36 1483.17 1473.55 1531.23L1271.54 1530.37C1355.34 1434.91 1464.14 1317.99 1553.04 1227.21C1335.07 1011.4 1352.25 1021.38 1547.37 815.568C1514.8 779.332 1477.33 743.13 1443.5 705.811C1391.47 756.869 1334.34 820.729 1282.73 874.216C1152.97 1007.35 1024.43 1141.68 897.133 1277.17L762.253 1419.84C731.287 1452.87 697.119 1490.09 662.878 1519.96C649.205 1531.9 628.712 1533.77 611.176 1535C595.046 1532.85 575.239 1527.77 563.321 1515.89C489.767 1441.43 414.333 1364.27 345.737 1285.43C309.161 1243.39 339.167 1181.15 372.44 1148.01C412.152 1108.45 454.731 1066.05 491.349 1024.2C461.653 991.758 362.09 893.247 343.742 864.025C336.428 852.517 331.967 839.431 330.728 825.853C324.541 764.569 375.325 731.706 411.792 690.917C464.294 632.194 524.77 576.502 574.882 515.982C643.121 514.931 714.917 516.281 783.427 516.507C753.973 552.996 709.664 598.131 676.787 632.766L493.843 823.39C511.536 840.566 531.454 862.424 546.792 878.855C631.401 969.496 706.305 1029.81 587.455 1140.51C565.494 1160.95 525.696 1204.78 501.716 1229.19C533.332 1259.71 578.991 1311.1 608.445 1344.27C783.807 1156.32 960.845 969.942 1139.54 785.165L1301.81 614.13C1329.03 585.625 1357.57 554.015 1387.58 528.477C1398.68 519.031 1416.47 515.689 1430.56 513Z" fill="url(#paint0_linear_2_58)"/>
<path d="M1256.37 1107.78C1264.27 1110.88 1351.42 1208.38 1363.02 1220.99C1332.57 1256.03 1294.58 1294.47 1262.45 1328.53L1070.55 1530.62L980.535 1530.65L861.406 1530.45C993.794 1390.27 1125.45 1249.36 1256.37 1107.78Z" fill="url(#paint1_linear_2_58)"/>
<path d="M979.787 515.748L1193.83 516.269L845.803 881.112L791.587 936.532C756.096 900.581 721.429 863.827 687.609 826.297C776.83 737.751 897.192 610.651 979.787 515.748Z" fill="url(#paint2_linear_2_58)"/>
</g>
<defs>
<linearGradient id="paint0_linear_2_58" x1="1719.69" y1="1055.31" x2="328.849" y2="989.936" gradientUnits="userSpaceOnUse">
<stop stop-color="#FF2D00"/>
<stop offset="1" stop-color="#4939B0"/>
</linearGradient>
<linearGradient id="paint1_linear_2_58" x1="1112.21" y1="1107.78" x2="1112.21" y2="1530.65" gradientUnits="userSpaceOnUse">
<stop stop-color="#F42E0C"/>
<stop offset="1" stop-color="#4939B0"/>
</linearGradient>
<linearGradient id="paint2_linear_2_58" x1="1204.62" y1="574.571" x2="691.567" y2="813.227" gradientUnits="userSpaceOnUse">
<stop stop-color="#4939B0"/>
<stop offset="1" stop-color="#F84F2B"/>
</linearGradient>
<clipPath id="clip0_2_58">
<rect width="2048" height="2048" fill="white"/>
</clipPath>
</defs>
</svg>
