<svg width="1720" height="1200" viewBox="220 430 1720 1200" fill="none" xmlns="http://www.w3.org/2000/svg">
<g clip-path="url(#clip0_2_15)">
<path d="M0 0H2048V2048H0V0Z" fill="none"/>
<path d="M1435.83 829.07L1484.25 829.106L1484.49 1144.84L1436.61 1144.82L1448.89 1091.09C1434.3 1113.02 1422.09 1132.64 1396.57 1143.02C1371.05 1153.39 1342.43 1151.3 1317.31 1141.05C1305.29 1135.46 1294.39 1127.69 1285.19 1118.14C1240.26 1071.22 1243.83 988.59 1291.02 944.859C1328.17 910.436 1393.26 906.95 1428.46 946.154C1434.47 952.837 1439 960.254 1445.07 966.859L1445.87 967.711C1443.64 958.471 1437.75 944.47 1436.61 936.747C1435.07 926.382 1435.74 907.958 1435.79 896.887C1435.96 874.281 1435.97 851.675 1435.83 829.07Z" fill="#FEFEFE"/>
<path d="M1365.8 959.401C1433.55 956.79 1457.7 1035.54 1421.29 1084.73C1409.9 1100.12 1392.21 1106.04 1373.59 1107.73C1356.27 1107.28 1342.32 1104.76 1328.15 1093.67C1295.92 1068.46 1292.52 1015.49 1317.49 984.202C1329.9 968.651 1346.48 961.581 1365.8 959.401Z" fill="#09080F"/>
<path d="M768.568 921.899L817.223 922.085L817.035 1008.97C816.97 1036.01 812.813 1072.02 832.47 1093.2C850.495 1113.02 890.411 1111.73 909.171 1093.5C931.342 1071.95 926.924 1033.8 926.957 1005.45L927.047 922.075L975.729 922.109L975.903 1018.23L975.73 1144.68L927.336 1144.74C931.29 1129.81 934.627 1111.95 938.153 1096.52C931.555 1107.36 925.139 1117.14 916.552 1126.57C886.925 1159.1 826.595 1157.08 796.036 1126.59C763.189 1093.83 768.45 1045.23 768.485 1002.36L768.568 921.899Z" fill="#FEFEFE"/>
<path d="M1130.47 918.366C1173.9 913.851 1209.55 939.161 1219.16 981.839C1224.78 1006.8 1223.03 1033.43 1223.03 1059L1222.97 1144.92L1174.89 1144.93L1175.01 1059.83C1175.16 1020.72 1182.6 959.641 1123.83 960.302C1106.45 960.498 1093.5 967.16 1081.64 979.698C1065.18 1003.26 1068.89 1030.97 1068.89 1058.44L1068.95 1144.83L1020.74 1144.84L1020.71 922.115L1068.83 922.099C1065.1 937.099 1061.81 952.603 1058.44 967.724C1078.36 936.65 1092.86 922.532 1130.47 918.366Z" fill="#FEFEFE"/>
<path d="M1887.45 826.432C1909.35 826.51 1923.35 829.255 1942.79 838.957C1937.82 850.707 1931.71 863.29 1926.31 874.945C1908.71 867.243 1886.31 860.643 1870.81 877.185C1859.06 889.724 1859.94 906.184 1860.23 922.122L1934.09 922.011V960.979L1860.27 960.92L1860.22 1094.5L1860.34 1144.9L1812.99 1144.95L1812.89 960.844L1773.01 960.955V921.911L1812.95 922.07C1812.33 866.867 1826.2 829.951 1887.45 826.432Z" fill="#FEFEFE"/>
<path d="M1722.12 826.458C1746.93 826.462 1757.86 828.004 1780.99 837.205C1775.18 849.222 1769.48 862.865 1763.79 875.209C1745.61 866.542 1722.26 860.063 1705.75 876.795C1693.72 888.986 1694.39 906.136 1694.47 922.055L1765.59 922.035L1765.55 960.902L1694.69 960.916L1694.8 1091.75L1694.92 1145L1647.72 1144.99L1647.86 960.924L1606.98 960.958L1607 922.008L1647.87 922.089C1647.62 868.136 1663.27 830.345 1722.12 826.458Z" fill="#FEFEFE"/>
<path d="M1530.52 922.076L1578.79 922.043L1578.86 1064.86C1578.87 1088.79 1580.02 1121.77 1578.58 1144.77L1530.37 1144.89L1530.52 922.076Z" fill="#FEFEFE"/>
<path d="M1547.29 827.566C1563.47 823.27 1580.05 832.957 1584.26 849.158C1588.47 865.36 1578.69 881.892 1562.47 886.012C1546.37 890.1 1529.99 880.415 1525.81 864.337C1521.64 848.259 1531.23 831.828 1547.29 827.566Z" fill="#FEFEFE"/>
<path d="M519.566 842.365C530.763 842.364 537.864 845.357 545.589 853.384C566.057 874.568 585.833 896.595 606 918.057C616.206 928.92 624.07 937.767 623.097 953.791C622.392 965.411 613.58 975.22 606.007 983.132C592.648 997.086 579.063 1010.72 565.505 1024.43C579.837 1039.91 595.034 1055.34 609.354 1071.07C641.614 1106.5 610.977 1127.45 586.882 1153.2C569.942 1171.3 552.832 1190.13 534.977 1207.36L462.565 1207.05C492.601 1172.83 531.604 1130.92 563.471 1098.38C485.336 1021.02 491.496 1024.6 561.436 950.823C549.762 937.834 536.33 924.857 524.203 911.48C505.552 929.782 485.075 952.673 466.573 971.846C420.06 1019.57 373.985 1067.72 328.354 1116.29L280.005 1167.43C268.905 1179.27 256.657 1192.61 244.383 1203.32C239.482 1207.6 232.136 1208.27 225.85 1208.71C220.068 1207.94 212.968 1206.12 208.696 1201.86C182.33 1175.17 155.29 1147.51 130.701 1119.25C117.59 1104.18 128.346 1081.87 140.273 1069.99C154.508 1055.81 169.771 1040.61 182.897 1025.61C172.252 1013.98 136.563 978.668 129.986 968.193C127.364 964.068 125.765 959.377 125.321 954.51C123.103 932.542 141.307 920.762 154.379 906.141C173.199 885.091 194.877 865.128 212.84 843.434C237.301 843.057 263.037 843.541 287.595 843.622C277.037 856.702 261.154 872.881 249.369 885.296L183.791 953.627C190.133 959.784 197.273 967.619 202.771 973.509C233.1 1006 259.95 1027.62 217.347 1067.3C209.475 1074.63 195.209 1090.34 186.613 1099.09C197.946 1110.03 214.313 1128.45 224.871 1140.34C287.731 1072.97 351.192 1006.16 415.248 939.925L473.414 878.616C483.172 868.398 493.4 857.067 504.159 847.913C508.139 844.527 514.516 843.329 519.566 842.365Z" fill="url(#paint0_linear_2_15)"/>
<path d="M457.125 1055.57C459.957 1056.68 491.197 1091.63 495.354 1096.15C484.44 1108.71 470.823 1122.49 459.305 1134.7L390.516 1207.14L358.25 1207.15L315.547 1207.08C363.003 1156.83 410.197 1106.32 457.125 1055.57Z" fill="url(#paint1_linear_2_15)"/>
<path d="M357.982 843.35L434.707 843.537L309.954 974.318L290.52 994.184C277.798 981.297 265.371 968.122 253.248 954.669C285.23 922.929 328.375 877.369 357.982 843.35Z" fill="url(#paint2_linear_2_15)"/>
</g>
<defs>
<linearGradient id="paint0_linear_2_15" x1="623.207" y1="1036.76" x2="124.648" y2="1013.33" gradientUnits="userSpaceOnUse">
<stop stop-color="#FF2D00"/>
<stop offset="1" stop-color="#4939B0"/>
</linearGradient>
<linearGradient id="paint1_linear_2_15" x1="405.451" y1="1055.57" x2="405.451" y2="1207.15" gradientUnits="userSpaceOnUse">
<stop stop-color="#F42E0C"/>
<stop offset="1" stop-color="#4939B0"/>
</linearGradient>
<linearGradient id="paint2_linear_2_15" x1="438.576" y1="864.436" x2="254.667" y2="949.984" gradientUnits="userSpaceOnUse">
<stop stop-color="#4939B0"/>
<stop offset="1" stop-color="#F84F2B"/>
</linearGradient>
<clipPath id="clip0_2_15">
<rect width="2048" height="2048" fill="white"/>
</clipPath>
</defs>
</svg>
